<svg id="Layer_3" height="512" viewBox="0 0 64 64" width="512" xmlns="http://www.w3.org/2000/svg" data-name="Layer 3"><path d="m39 52-1-6h-12l-1 6z" fill="#5a5b5d"/><path d="m25 52h14l-.667-4h-12.666z" fill="#77787c"/><path d="m62 12a4 4 0 0 0 -4-4h-52a4 4 0 0 0 -4 4v30a4 4 0 0 0 4 4h52a4 4 0 0 0 4-4z" fill="#50bae3"/><path d="m58 8h-52a3.961 3.961 0 0 0 -1.64.36 3.961 3.961 0 0 0 -.36 1.64v30a4 4 0 0 0 4 4h52a3.961 3.961 0 0 0 1.64-.36 3.961 3.961 0 0 0 .36-1.64v-30a4 4 0 0 0 -4-4z" fill="#6ec5e7"/><path d="m62 40h-60v2a4 4 0 0 0 4 4h52a4 4 0 0 0 4-4z" fill="#b4b5b9"/><path d="m62 12h-60a4 4 0 0 1 4-4h52a4 4 0 0 1 4 4z" fill="#b4b5b9"/><path d="m8 44h52a3.961 3.961 0 0 0 1.64-.36 3.961 3.961 0 0 0 .36-1.64v-2h-58a4 4 0 0 0 4 4z" fill="#c2c3c5"/><path d="m58 8h-50a4 4 0 0 0 -4 4h58a4 4 0 0 0 -4-4z" fill="#c2c3c5"/><rect fill="#9a9b9f" height="4" rx="2" width="22" x="21" y="52"/><path d="m36.782 34.782 10.39 10.39a2.828 2.828 0 0 0 2 .828 2.828 2.828 0 0 0 2.828-2.828 2.828 2.828 0 0 0 -.828-2l-10.39-10.39" fill="#ab692a"/><path d="m40.782 30.782-3.109 3.109 9.5 9.5a2.817 2.817 0 0 0 4.671-1.109 2.817 2.817 0 0 0 -.671-1.109z" fill="#dc8039"/><g fill="#fff"><path d="m5 18h14v2h-14z"/><path d="m5 22h14v2h-14z"/><path d="m5 26h14v2h-14z"/><path d="m46 17h12v4h-12z"/><path d="m52 25h6v4h-6z"/></g><path d="m37.563 32.116h5.657v4.551h-5.657z" fill="#424344" transform="matrix(.707 -.707 .707 .707 -12.488 38.633)"/><path d="m38.638 31.67h4.397v4.551h-4.397z" fill="#5a5b5d" transform="matrix(.707 -.707 .707 .707 -12.042 38.818)"/><circle cx="32" cy="26" fill="#dcdddf" r="10"/><path d="m32 16a9.941 9.941 0 0 0 -5.992 2.008 9.986 9.986 0 0 0 13.984 13.984 9.986 9.986 0 0 0 -7.992-15.992z" fill="#fff"/><circle cx="32" cy="23" fill="#efeb6a" r="3"/><path d="m32 26a5 5 0 0 0 -5 5v3.651a9.941 9.941 0 0 0 10 0v-3.651a5 5 0 0 0 -5-5z" fill="#d3ce48"/><path d="m34 34a9.882 9.882 0 0 0 3-.47v-2.53a5 5 0 0 0 -10 0v.136a9.962 9.962 0 0 0 7 2.864z" fill="#efeb6a"/><path d="m58 7h-52a5.006 5.006 0 0 0 -5 5v30a5.006 5.006 0 0 0 5 5h18.82l-.667 4h-1.153a3 3 0 0 0 0 6h18a3 3 0 0 0 0-6h-1.153l-.667-4h18.82a5.006 5.006 0 0 0 5-5v-30a5.006 5.006 0 0 0 -5-5zm-8.829 38a1.819 1.819 0 0 1 -1.293-.535l-6.464-6.465 2.586-2.586 6.465 6.465a1.829 1.829 0 0 1 -1.294 3.121zm-11.171-12.311v-1.689a6 6 0 0 0 -3.107-5.251 4 4 0 1 0 -5.786 0 6 6 0 0 0 -3.107 5.251v1.689a9 9 0 1 1 12 0zm-8-9.689a2 2 0 1 1 2 2 2 2 0 0 1 -2-2zm-2 8a4 4 0 0 1 8 0v3.05a8.9 8.9 0 0 1 -8 0zm12.953 1.367 1.633 1.633-2.586 2.586-1.633-1.633a11.06 11.06 0 0 0 2.586-2.586zm9.461 6.633-8.424-8.424a11.037 11.037 0 1 0 -5.414 5.414l3.01 3.01h-36.586v-26h58v26zm-44.414-30h52a3 3 0 0 1 2.816 2h-57.632a3 3 0 0 1 2.816-2zm-3 33v-1h38.586l4 4h-39.586a3 3 0 0 1 -3-3zm39 12a1 1 0 0 1 -1 1h-18a1 1 0 0 1 0-2h18a1 1 0 0 1 1 1zm-4.18-3h-11.64l.667-4h10.306zm20.18-6h-5.486a3.748 3.748 0 0 0 -.2-4h8.686v1a3 3 0 0 1 -3 3z"/><path d="m5 18h14v2h-14z"/><path d="m5 22h14v2h-14z"/><path d="m5 26h14v2h-14z"/><path d="m58 16h-12a1 1 0 0 0 -1 1v4a1 1 0 0 0 1 1h12a1 1 0 0 0 1-1v-4a1 1 0 0 0 -1-1zm-1 4h-10v-2h10z"/><path d="m58 24h-6a1 1 0 0 0 -1 1v4a1 1 0 0 0 1 1h6a1 1 0 0 0 1-1v-4a1 1 0 0 0 -1-1zm-1 4h-4v-2h4z"/></svg>